<svg width="36" height="33" viewBox="0 0 36 33" fill="none" xmlns="http://www.w3.org/2000/svg">
<path d="M9.16244 31.9275L6 26.6799L10.6411 19L13.5902 23.8941L31 23.8851L26.0599 32L9.16244 31.9275Z" fill="#FFAD64"/>
<path d="M33.9287 18.1633L30.7706 23.7966L21.5201 23.7854L24.4656 18.5316L15.7644 3.03003L25.5568 3.07428L33.9287 18.1633Z" fill="#ADD4D3"/>
<path d="M9.50274 3H15.8191L20.4348 11.2561L14.544 11.2557L5.85903 26.7669L1 18.0112L9.50274 3Z" fill="#FB8351"/>
<path fill-rule="evenodd" clip-rule="evenodd" d="M17.0893 0.03365L17.0705 0H9.25673L0 16.3424L6.35426 27.7924L6.36206 27.7785L8.76423 32.0634L27.1352 32.148L33.5868 20.7557H33.5438L35.9271 16.5046L26.8128 0.0775801L17.0893 0.03365ZM23.1337 10.932H23.1824L18.5892 2.71656L25.301 2.74687L32.9305 16.4977L30.5424 20.7575L24.2842 20.7609L26.4662 16.869L23.1337 10.932ZM15.4981 2.67606L18.63 8.25584L14.2937 8.25574L6.86974 21.5146L6.36334 22.4155L3.00059 16.356L10.7493 2.67606H15.4981ZM12.4869 16.8396L15.7948 10.9318L20.1323 10.932L23.4652 16.8698L21.2827 20.7626L14.6881 20.7663L12.4869 16.8396ZM7.86136 25.1007L9.11982 22.8532L10.9913 19.5241L13.1882 23.4432L19.7818 23.4395L19.7712 23.4585L29.0416 23.4698L25.6465 29.4651L10.2683 29.3942L7.86136 25.1007Z" fill="#333237"/>
</svg>
